<?xml version="1.0" encoding="utf-8"?>
<!-- Generator: Adobe Illustrator 18.0.0, SVG Export Plug-In . SVG Version: 6.00 Build 0)  -->
<!DOCTYPE svg PUBLIC "-//W3C//DTD SVG 1.1//EN" "http://www.w3.org/Graphics/SVG/1.1/DTD/svg11.dtd">
<svg version="1.1" id="Layer_1" xmlns="http://www.w3.org/2000/svg" xmlns:xlink="http://www.w3.org/1999/xlink" x="0px" y="0px"
	 viewBox="0 253.5 612 299.9" enable-background="new 0 253.5 612 299.9" xml:space="preserve">
<g>
	<g>
		<path opacity="0.1" fill="#00C0F3" enable-background="new    " d="M604.8,261.5c-2,0.4-3.9,0.7-5.9,1.1c-0.2,0-0.4,0-0.6,0.2
			c-1.8,0.4-3.5,0.7-5.4,1.1c-0.4,0-0.9,0.2-1.3,0.4c-1.8,0.4-3.9,0.9-5.7,1.3c-0.4,0-0.6,0.2-0.9,0.2c-1.7,0.4-3.3,0.7-5,1.3
			c-0.4,0.2-0.7,0.2-1.1,0.4c-1.8,0.6-3.7,0.9-5.7,1.5c-0.4,0.2-0.7,0.2-1.1,0.4c-1.7,0.6-3.3,0.9-5,1.5c-0.4,0-0.6,0.2-0.9,0.2
			c-1.8,0.6-3.7,1.1-5.5,1.7c-0.4,0.2-0.7,0.2-1.3,0.4c-1.8,0.6-3.5,1.1-5.2,1.7c-0.2,0-0.4,0.2-0.6,0.2c-1.8,0.6-3.7,1.3-5.5,1.8
			c-0.4,0.2-0.9,0.4-1.3,0.4c-1.8,0.6-3.7,1.3-5.5,2l0,0c-1.8,0.7-3.7,1.3-5.5,2c-0.4,0.2-0.7,0.4-1.3,0.4c-1.8,0.7-3.7,1.3-5.5,2
			c-0.2,0-0.4,0.2-0.6,0.2c-1.7,0.7-3.3,1.3-5,2c-0.4,0.2-0.7,0.4-1.1,0.4c-1.8,0.7-3.5,1.5-5.4,2.2c-0.4,0.2-0.6,0.2-0.9,0.4
			c-1.7,0.7-3.1,1.3-4.8,2c-0.4,0.2-0.6,0.2-0.9,0.4c-1.8,0.7-3.5,1.7-5.4,2.4c-0.4,0.2-0.7,0.4-0.9,0.6c-1.7,0.7-3.1,1.5-4.8,2.2
			c-0.2,0.2-0.6,0.2-0.7,0.4c-1.7,0.9-3.5,1.7-5.2,2.6c-0.4,0.2-0.7,0.4-1.1,0.6c-1.7,0.9-3.3,1.7-5,2.6c-0.2,0-0.2,0.2-0.4,0.2
			c-1.7,0.9-3.5,1.8-5.2,2.8c-0.4,0.2-0.7,0.4-1.1,0.6c-1.7,0.9-3.5,1.8-5.2,2.8l0,0c-1.7,0.9-3.3,1.8-5,2.8
			c-0.4,0.2-0.7,0.4-1.1,0.6c-1.7,0.9-3.3,2-5,3l0,0c0.7-0.4,1.5-0.7,2.4-1.3c0.4-0.2,0.7-0.4,1.1-0.6c1.5-0.7,3.1-1.7,4.6-2.4
			c0.2-0.2,0.4-0.2,0.6-0.4c1.7-0.9,3.5-1.7,5.2-2.6c0.4-0.2,0.7-0.4,1.1-0.6c1.7-0.7,3.5-1.7,5.2-2.4l0,0c1.8-0.7,3.5-1.7,5.4-2.4
			c0.4-0.2,0.7-0.4,1.1-0.6c1.8-0.7,3.5-1.5,5.4-2.4c0.2,0,0.2,0,0.4-0.2c1.7-0.7,3.5-1.5,5.2-2.2c0.4-0.2,0.7-0.4,1.1-0.4
			c1.8-0.7,3.5-1.5,5.4-2.2c0.2-0.2,0.6-0.2,0.7-0.4c1.7-0.6,3.3-1.3,5-1.8c0.4-0.2,0.7-0.2,1.1-0.4c1.8-0.7,3.7-1.3,5.4-2
			c0.4-0.2,0.7-0.2,0.9-0.4c1.7-0.6,3.3-1.1,5-1.7c0.4-0.2,0.6-0.2,0.9-0.4c1.8-0.6,3.7-1.3,5.5-1.8c0.4-0.2,0.7-0.2,1.1-0.4
			c1.7-0.6,3.5-1.1,5.2-1.7c0.2,0,0.4-0.2,0.6-0.2c1.8-0.6,3.7-1.1,5.5-1.7c0.4-0.2,0.7-0.2,1.3-0.4c1.8-0.6,3.7-1.1,5.7-1.7l0,0
			c1.8-0.6,3.9-0.9,5.7-1.5c0.4-0.2,0.9-0.2,1.3-0.4c1.8-0.6,3.9-0.9,5.7-1.5c0.2,0,0.4,0,0.6-0.2c1.8-0.4,3.5-0.7,5.4-1.3
			c0.4-0.2,0.9-0.2,1.3-0.4c1.8-0.4,3.9-0.7,5.7-1.3c0.4,0,0.6-0.2,0.9-0.2c1.7-0.4,3.5-0.7,5.2-0.9c0.4,0,0.7-0.2,1.1-0.2
			c1.8-0.4,3.9-0.7,5.7-1.1c0.4,0,0.7-0.2,1.1-0.2c1.7-0.4,3.5-0.6,5.2-0.9c0.4,0,0.7-0.2,0.9-0.2c1.8-0.4,3.9-0.6,5.7-0.9
			c0.4,0,0.9-0.2,1.3-0.2c1.7-0.2,3.5-0.6,5.2-0.7c0-0.4,1.3-7.6,1.5-9.1c-2,0.4-3.9,0.7-5.9,1.1
			C605.7,261.3,605.2,261.3,604.8,261.5z"/>
		<path opacity="0.1" fill="#00C0F3" enable-background="new    " d="M598.5,254.8c-1.8,0.6-3.9,0.9-5.7,1.5c-0.2,0-0.4,0.2-0.6,0.2
			c-1.7,0.6-3.5,0.9-5.2,1.5c-0.4,0.2-0.9,0.2-1.3,0.4c-1.8,0.6-3.7,1.1-5.5,1.7c-0.4,0.2-0.6,0.2-0.9,0.4c-1.7,0.6-3.3,1.1-5,1.7
			c-0.4,0.2-0.7,0.2-1.1,0.4c-1.8,0.6-3.7,1.3-5.5,1.8c-0.4,0.2-0.7,0.2-1.1,0.4c-1.7,0.6-3.3,1.1-5,1.7c-0.4,0.2-0.6,0.2-0.9,0.4
			c-1.8,0.7-3.7,1.3-5.5,2c-0.4,0.2-0.7,0.4-1.3,0.4c-1.7,0.7-3.5,1.3-5.2,2c-0.2,0-0.4,0.2-0.6,0.2c-1.8,0.7-3.7,1.5-5.5,2.2
			c-0.4,0.2-0.7,0.4-1.3,0.6c-1.8,0.7-3.7,1.5-5.5,2.2l0,0c-1.8,0.7-3.7,1.5-5.4,2.4c-0.4,0.2-0.7,0.4-1.1,0.6
			c-1.8,0.7-3.5,1.7-5.4,2.4c-0.2,0-0.4,0.2-0.6,0.2c-1.7,0.7-3.3,1.5-4.8,2.4c-0.4,0.2-0.7,0.4-1.1,0.6c-1.7,0.9-3.5,1.7-5.2,2.6
			c-0.4,0.2-0.6,0.4-0.7,0.4c-1.5,0.7-3.1,1.7-4.6,2.4c-0.4,0.2-0.6,0.4-0.9,0.6c-1.7,0.9-3.3,1.8-5.2,2.8c-0.4,0.2-0.7,0.4-0.9,0.6
			c-1.5,0.9-3.1,1.7-4.6,2.6c-0.2,0.2-0.4,0.2-0.7,0.4c-1.7,0.9-3.3,1.8-5,3c-0.4,0.2-0.7,0.4-1.1,0.6c-1.7,0.9-3.1,1.8-4.8,2.8
			c-0.2,0-0.2,0.2-0.4,0.2c-1.7,0.9-3.3,2-5,3.1c-0.4,0.2-0.7,0.4-1.1,0.7c-1.7,1.1-3.3,2-5,3.1l0,0c-1.7,1.1-3.1,2-4.8,3.1
			c-0.4,0.2-0.7,0.4-1.1,0.7c-1.7,1.1-3.1,2.2-4.8,3.3l0,0c0.7-0.4,1.5-0.9,2.2-1.3c0.4-0.2,0.7-0.4,0.9-0.6s2.8-0.7,6.8-1.8
			c8.9-3.5,37.5-27.7,132.1-43.4c1.5-8.5,1.7-15.9,1.8-17c-2,0.6-3.9,0.9-5.9,1.5C599.4,254.6,598.9,254.6,598.5,254.8z"/>
		
			<linearGradient id="SVGID_1_" gradientUnits="userSpaceOnUse" x1="225.8455" y1="701.7285" x2="232.7349" y2="723.1915" gradientTransform="matrix(1.8478 0 0 -1.8478 0 1702.5978)">
			<stop  offset="0" style="stop-color:#FFFFFF"/>
			<stop  offset="1" style="stop-color:#008DA9"/>
		</linearGradient>
		<path opacity="0.2" fill="url(#SVGID_1_)" enable-background="new    " d="M523.7,289.8c-0.7,0.4-87,31-157.8,96.5
			c-5.9-2.2-9.6-4.4-9.8-4.6c0,0,47.5-37,85.2-57.7S523.7,289.8,523.7,289.8z"/>
		<g>
			<g>
				<defs>
					<path id="SVGID_2_" d="M604.6,269.8c-0.6,0-0.9,0.2-1.5,0.2c-2,0.4-3.9,0.6-5.9,0.9c-0.2,0-0.4,0-0.6,0.2
						c-1.8,0.4-3.5,0.6-5.4,0.9c-0.4,0-0.9,0.2-1.3,0.2c-1.8,0.4-3.9,0.7-5.7,1.1c-0.4,0-0.7,0.2-0.9,0.2c-1.7,0.4-3.5,0.7-5.2,0.9
						c-0.4,0-0.7,0.2-1.1,0.2c-1.8,0.4-3.9,0.7-5.7,1.3c-0.4,0-0.7,0.2-1.1,0.2c-1.7,0.4-3.3,0.7-5.2,1.1c-0.4,0-0.6,0.2-0.9,0.2
						c-1.8,0.4-3.9,0.9-5.7,1.5c-0.4,0.2-0.7,0.2-1.3,0.4c-1.8,0.4-3.5,0.9-5.4,1.5c-0.2,0-0.4,0-0.6,0.2c-1.8,0.6-3.7,1.1-5.7,1.7
						c-0.4,0.2-0.9,0.2-1.3,0.4c-1.8,0.6-3.9,1.1-5.7,1.7l0,0c-1.8,0.6-3.7,1.1-5.5,1.8c-0.4,0.2-0.7,0.2-1.3,0.4
						c-1.8,0.6-3.7,1.3-5.5,1.8c-0.2,0-0.4,0.2-0.6,0.2c-1.7,0.6-3.3,1.1-5.2,1.8c-0.4,0.2-0.7,0.2-1.1,0.4c-1.8,0.7-3.7,1.3-5.5,2
						c-0.4,0.2-0.6,0.2-0.9,0.4c-1.7,0.6-3.3,1.3-4.8,1.8c-0.4,0.2-0.7,0.2-0.9,0.4c-1.8,0.7-3.5,1.5-5.4,2.2
						c-0.4,0.2-0.7,0.4-1.1,0.4c-1.7,0.7-3.3,1.3-4.8,2c-0.2,0.2-0.6,0.2-0.7,0.4c-1.8,0.7-3.5,1.5-5.4,2.4
						c-0.4,0.2-0.7,0.4-1.1,0.6c-1.7,0.7-3.3,1.5-5,2.2c-0.2,0-0.2,0-0.4,0.2c-1.8,0.7-3.5,1.7-5.4,2.4c-0.4,0.2-0.7,0.4-1.1,0.6
						c-1.8,0.9-3.5,1.7-5.2,2.6l0,0c-1.7,0.9-3.5,1.7-5.2,2.6c-0.4,0.2-0.7,0.4-1.1,0.6c-1.7,0.9-3.3,1.8-5.2,2.8
						c-0.2,0.2-0.4,0.2-0.6,0.4c-1.5,0.9-3.1,1.7-4.6,2.6c-0.4,0.2-0.7,0.4-1.1,0.6c-1.7,0.9-3.3,1.8-5,2.8
						c-0.4,0.2-0.6,0.4-0.9,0.6c-1.5,0.9-3,1.7-4.4,2.6c-0.4,0.2-0.6,0.4-0.9,0.6c-1.7,0.9-3.3,2-4.8,3c-0.4,0.2-0.7,0.4-1.1,0.6
						c-1.5,0.9-3,1.8-4.3,2.8c-0.2,0.2-0.6,0.4-0.7,0.4c-1.7,0.9-3.1,2-4.8,3.1c-0.4,0.2-0.7,0.6-1.1,0.7c-0.7,0.6-1.7,1.1-2.4,1.7
						c-0.2,0-0.2,0.2-0.4,0.2c-0.6,0.4-1.1,0.7-1.7,1.1c-0.2,0-0.2,0.2-0.4,0.2c-0.4,0.2-0.7,0.6-1.1,0.7c-0.4,0.4-0.9,0.6-1.3,0.9
						c-0.7,0.6-1.5,0.9-2.2,1.5c-0.2,0.2-0.6,0.4-0.7,0.6l0,0c-16.4,11.6-32.2,24.4-46.9,38.1c-1.5,1.3-2.6,2.4-3.7,3.7
						c9.6,3.5,107.2,39.9,165.2,24.9c13.3-3.5,24.6-9.6,32.2-19.6c1.1-1.8,2.2-3.7,3.3-5.7c0.2-0.2,0.4-0.6,0.4-0.7
						c1.1-1.8,2-3.7,3.1-5.5c0.2-0.4,0.4-0.6,0.6-0.9c0.9-1.8,2-3.7,3-5.5c0.2-0.2,0.2-0.6,0.4-0.7c1.1-2,2-3.9,3-5.9l0,0
						c6.3-12.8,12-25.7,17-39.2l0,0c0.2-0.2,0.2-0.6,0.2-0.7c0.4-0.7,0.6-1.5,0.7-2.2c0.2-0.4,0.4-0.9,0.6-1.3
						c0.4-0.7,0.6-1.5,0.7-2.4c0.2-0.4,0.4-0.9,0.4-1.3c0.4-0.7,0.6-1.7,0.9-2.4c0.2-0.4,0.2-0.7,0.4-1.1c0.4-0.9,0.6-1.8,0.9-2.8
						v-0.2c1.1-3.1,2-6.3,3-9.4c0.2-0.4,0.2-0.7,0.4-1.1c0.2-0.7,0.4-1.5,0.7-2.2c0.2-0.6,0.4-1.1,0.4-1.5c0.2-0.7,0.4-1.5,0.6-2
						c0.2-0.6,0.4-1.1,0.6-1.7c0.2-0.7,0.4-1.3,0.6-2c0.2-0.6,0.4-1.3,0.6-1.8c0.2-0.6,0.4-1.3,0.6-2c0.2-0.7,0.4-1.3,0.6-2
						c0.2-0.6,0.4-1.3,0.6-1.8c0.2-0.7,0.4-1.5,0.6-2c0.2-0.6,0.4-1.1,0.4-1.8c0.2-0.7,0.4-1.5,0.6-2.2c0.2-0.6,0.2-1.1,0.4-1.7
						c0.2-0.9,0.4-1.7,0.6-2.6c0.2-0.4,0.2-0.9,0.4-1.3c0.4-1.3,0.6-2.6,0.7-3.9C608.5,269.2,606.5,269.4,604.6,269.8z"/>
				</defs>
				<clipPath id="SVGID_3_">
					<use xlink:href="#SVGID_2_"  overflow="visible"/>
				</clipPath>
				<g clip-path="url(#SVGID_3_)">
					<g>
						<g>
							<g>
								<g>
									
										<image overflow="visible" enable-background="new    " width="963" height="646" xlink:href="D97476F1.png"  transform="matrix(0.4412 0 0 0.4414 260.0743 190.293)">
									</image>
								</g>
							</g>
						</g>
					</g>
				</g>
			</g>
			<g>
				<defs>
					<path id="SVGID_4_" d="M604.6,269.8c-0.6,0-0.9,0.2-1.5,0.2c-2,0.4-3.9,0.6-5.9,0.9c-0.2,0-0.4,0-0.6,0.2
						c-1.8,0.4-3.5,0.6-5.4,0.9c-0.4,0-0.9,0.2-1.3,0.2c-1.8,0.4-3.9,0.7-5.7,1.1c-0.4,0-0.7,0.2-0.9,0.2c-1.7,0.4-3.5,0.7-5.2,0.9
						c-0.4,0-0.7,0.2-1.1,0.2c-1.8,0.4-3.9,0.7-5.7,1.3c-0.4,0-0.7,0.2-1.1,0.2c-1.7,0.4-3.3,0.7-5.2,1.1c-0.4,0-0.6,0.2-0.9,0.2
						c-1.8,0.4-3.9,0.9-5.7,1.5c-0.4,0.2-0.7,0.2-1.3,0.4c-1.8,0.4-3.5,0.9-5.4,1.5c-0.2,0-0.4,0-0.6,0.2c-1.8,0.6-3.7,1.1-5.7,1.7
						c-0.4,0.2-0.9,0.2-1.3,0.4c-1.8,0.6-3.9,1.1-5.7,1.7l0,0c-1.8,0.6-3.7,1.1-5.5,1.8c-0.4,0.2-0.7,0.2-1.3,0.4
						c-1.8,0.6-3.7,1.3-5.5,1.8c-0.2,0-0.4,0.2-0.6,0.2c-1.7,0.6-3.3,1.1-5.2,1.8c-0.4,0.2-0.7,0.2-1.1,0.4c-1.8,0.7-3.7,1.3-5.5,2
						c-0.4,0.2-0.6,0.2-0.9,0.4c-1.7,0.6-3.3,1.3-4.8,1.8c-0.4,0.2-0.7,0.2-0.9,0.4c-1.8,0.7-3.5,1.5-5.4,2.2
						c-0.4,0.2-0.7,0.4-1.1,0.4c-1.7,0.7-3.3,1.3-4.8,2c-0.2,0.2-0.6,0.2-0.7,0.4c-1.8,0.7-3.5,1.5-5.4,2.4
						c-0.4,0.2-0.7,0.4-1.1,0.6c-1.7,0.7-3.3,1.5-5,2.2c-0.2,0-0.2,0-0.4,0.2c-1.8,0.7-3.5,1.7-5.4,2.4c-0.4,0.2-0.7,0.4-1.1,0.6
						c-1.8,0.9-3.5,1.7-5.2,2.6l0,0c-1.7,0.9-3.5,1.7-5.2,2.6c-0.4,0.2-0.7,0.4-1.1,0.6c-1.7,0.9-3.3,1.8-5.2,2.8
						c-0.2,0.2-0.4,0.2-0.6,0.4c-1.5,0.9-3.1,1.7-4.6,2.6c-0.4,0.2-0.7,0.4-1.1,0.6c-1.7,0.9-3.3,1.8-5,2.8
						c-0.4,0.2-0.6,0.4-0.9,0.6c-1.5,0.9-3,1.7-4.4,2.6c-0.4,0.2-0.6,0.4-0.9,0.6c-1.7,0.9-3.3,2-4.8,3c-0.4,0.2-0.7,0.4-1.1,0.6
						c-1.5,0.9-3,1.8-4.3,2.8c-0.2,0.2-0.6,0.4-0.7,0.4c-1.7,0.9-3.1,2-4.8,3.1c-0.4,0.2-0.7,0.6-1.1,0.7c-0.7,0.6-1.7,1.1-2.4,1.7
						c-0.2,0-0.2,0.2-0.4,0.2c-0.6,0.4-1.1,0.7-1.7,1.1c-0.2,0-0.2,0.2-0.4,0.2c-0.4,0.2-0.7,0.6-1.1,0.7c-0.4,0.4-0.9,0.6-1.3,0.9
						c-0.7,0.6-1.5,0.9-2.2,1.5c-0.2,0.2-0.6,0.4-0.7,0.6l0,0c-16.4,11.6-32.2,24.4-46.9,38.1c-1.5,1.3-2.6,2.4-3.7,3.7
						c9.6,3.5,107.2,39.9,165.2,24.9c13.3-3.5,24.6-9.6,32.2-19.6c1.1-1.8,2.2-3.7,3.3-5.7c0.2-0.2,0.4-0.6,0.4-0.7
						c1.1-1.8,2-3.7,3.1-5.5c0.2-0.4,0.4-0.6,0.6-0.9c0.9-1.8,2-3.7,3-5.5c0.2-0.2,0.2-0.6,0.4-0.7c1.1-2,2-3.9,3-5.9l0,0
						c6.3-12.8,12-25.7,17-39.2l0,0c0.2-0.2,0.2-0.6,0.2-0.7c0.4-0.7,0.6-1.5,0.7-2.2c0.2-0.4,0.4-0.9,0.6-1.3
						c0.4-0.7,0.6-1.5,0.7-2.4c0.2-0.4,0.4-0.9,0.4-1.3c0.4-0.7,0.6-1.7,0.9-2.4c0.2-0.4,0.2-0.7,0.4-1.1c0.4-0.9,0.6-1.8,0.9-2.8
						v-0.2c1.1-3.1,2-6.3,3-9.4c0.2-0.4,0.2-0.7,0.4-1.1c0.2-0.7,0.4-1.5,0.7-2.2c0.2-0.6,0.4-1.1,0.4-1.5c0.2-0.7,0.4-1.5,0.6-2
						c0.2-0.6,0.4-1.1,0.6-1.7c0.2-0.7,0.4-1.3,0.6-2c0.2-0.6,0.4-1.3,0.6-1.8c0.2-0.6,0.4-1.3,0.6-2c0.2-0.7,0.4-1.3,0.6-2
						c0.2-0.6,0.4-1.3,0.6-1.8c0.2-0.7,0.4-1.5,0.6-2c0.2-0.6,0.4-1.1,0.4-1.8c0.2-0.7,0.4-1.5,0.6-2.2c0.2-0.6,0.2-1.1,0.4-1.7
						c0.2-0.9,0.4-1.7,0.6-2.6c0.2-0.4,0.2-0.9,0.4-1.3c0.4-1.3,0.6-2.6,0.7-3.9C608.5,269.2,606.5,269.4,604.6,269.8z"/>
				</defs>
				<clipPath id="SVGID_5_">
					<use xlink:href="#SVGID_4_"  overflow="visible"/>
				</clipPath>
				<path opacity="0.4" clip-path="url(#SVGID_5_)" fill="#FFFFFF" enable-background="new    " d="M375.3,388.2
					c14-14.4,29-27.9,45.1-40.3l0,0c0.2-0.2,0.6-0.4,0.7-0.6c0.7-0.6,1.5-1.1,2-1.7c0.4-0.4,0.7-0.6,1.3-0.9
					c0.4-0.2,0.7-0.6,0.9-0.7c0.2,0,0.2-0.2,0.4-0.2c0.6-0.4,1.1-0.7,1.7-1.1c0.2,0,0.2-0.2,0.4-0.2c0.7-0.6,1.7-1.1,2.4-1.8
					c0.4-0.2,0.7-0.6,1.1-0.7c1.5-1.1,3.1-2.2,4.6-3.3c0.2-0.2,0.4-0.4,0.7-0.6c1.5-0.9,2.8-2,4.3-3c0.4-0.2,0.7-0.4,0.9-0.7
					c1.5-1.1,3.1-2.2,4.6-3.1c0.4-0.2,0.6-0.4,0.9-0.6c1.5-0.9,2.8-1.8,4.3-2.8c0.2-0.2,0.6-0.4,0.9-0.6c1.7-1.1,3.1-2,4.8-3.1
					c0.4-0.2,0.7-0.4,0.9-0.6c1.5-0.9,3-1.8,4.4-2.8c0.2-0.2,0.4-0.2,0.6-0.4c1.7-0.9,3.3-2,5-3c0.4-0.2,0.7-0.4,1.1-0.6
					c1.7-0.9,3.3-1.8,5-2.8l0,0c1.7-0.9,3.3-1.8,5.2-2.8c0.4-0.2,0.7-0.4,1.1-0.6c1.7-0.9,3.5-1.8,5.2-2.8c0.2,0,0.2-0.2,0.4-0.2
					c1.7-0.9,3.3-1.7,5-2.6c0.4-0.2,0.7-0.4,1.1-0.6c1.7-0.9,3.5-1.7,5.2-2.6c0.2-0.2,0.6-0.2,0.7-0.4c1.7-0.7,3.1-1.5,4.8-2.2
					c0.4-0.2,0.7-0.4,1.1-0.6c1.3-0.6,2.4-1.1,3.7-1.7c0,0-41.9,10.9-120.1,54C341.8,374.2,342,401,375.3,388.2z"/>
			</g>
		</g>
	</g>
	<g>
		<path fill="#4D4D4F" d="M55.6,470.8c-3.3,4.6-6.7,7-9.6,7c-3.3,0-6.3-2.4-9.6-7l-21.6-29.9c-0.4-0.6-0.7-0.7-1.1-0.7
			c-0.6,0-1.1,0.6-1.1,1.8v48c0,3.5-1.8,6.8-6.3,6.8c-4.2,0-6.1-3.3-6.1-6.8v-53.8c0-6.1,3.1-12,10.5-12c5.4,0,9.4,2.8,13.5,8.3
			l20.5,28.3c0.6,0.7,0.9,1.1,1.7,1.1c0.6,0,1.1-0.6,1.7-1.1l20.5-28.3c4.1-5.5,8.1-8.3,13.5-8.3c7.4,0,10.5,5.9,10.5,12v53.8
			c0,3.5-1.8,6.8-6.1,6.8c-4.4,0-6.3-3.3-6.3-6.8v-48c0-1.1-0.6-1.8-1.1-1.8c-0.4,0-0.7,0.4-1.1,0.7L55.6,470.8z"/>
		<path fill="#4D4D4F" d="M132.1,489.9c0,3.5-1.8,6.8-6.3,6.8c-4.3,0-6.1-3.3-6.1-6.8v-58.9c0-3.5,1.8-6.8,6.1-6.8
			c4.4,0,6.3,3.3,6.3,6.8V489.9z"/>
		<path fill="#4D4D4F" d="M173.9,495.2c-10.2,0-14.4-4.3-14.4-14.4v-50.1c0-3.5,1.8-6.8,6.1-6.8c4.4,0,6.3,3.3,6.3,6.8V479
			c0,3.3,1.5,4.8,4.8,4.8H218c3.1,0,6.3,1.8,6.3,5.7c0,3.9-3.1,5.7-6.3,5.7L173.9,495.2L173.9,495.2z"/>
		<path fill="#4D4D4F" d="M257.6,495.2c-10.2,0-14.4-4.3-14.4-14.4v-50.1c0-3.5,1.8-6.8,6.1-6.8c4.4,0,6.3,3.3,6.3,6.8V479
			c0,3.3,1.5,4.8,4.8,4.8h41.2c3.1,0,6.3,1.8,6.3,5.7c0,3.9-3.1,5.7-6.3,5.7L257.6,495.2L257.6,495.2z"/>
		<path fill="#4D4D4F" d="M348.1,470.5c-3.3,0-5.2,1.5-6.3,4.8l-5.2,15.7c-1.1,3.5-3.1,5.7-6.5,5.7c-4.3,0-7.2-4.1-5.9-8.1
			l16.3-50.4c2.8-8.3,7-12.8,17.2-12.8h17.6c10.2,0,14.4,4.3,17.2,12.8l16.3,50.4c1.3,4.3-1.7,8.1-5.9,8.1c-3.1,0-5.2-2-6.5-5.7
			l-5.2-15.7c-1.1-3.3-3-4.8-6.3-4.8H348.1L348.1,470.5z M384,459c1.5,0,2-0.9,1.5-2.4l-4.8-15.2c-1.1-3.3-3-4.8-6.3-4.8H359
			c-3.3,0-5.2,1.5-6.3,4.8l-4.8,15.2c-0.6,1.5,0,2.4,1.5,2.4H384z"/>
		<path fill="#4D4D4F" d="M479.9,425.4c12,0,22,6.1,22,20c0,5.7-2.2,11.5-7,13.9c5,3.9,7,9.6,7,15.3c0,14-10.2,20.7-22.7,20.7h-36.6
			c-10.2,0-14.4-4.3-14.4-14.4v-41c0-10.2,4.3-14.4,14.4-14.4H479.9z M478.8,454c5.7,0,10.5-2,10.5-8.5c0-6.7-4.8-8.5-10.5-8.5
			h-33.3c-3.3,0-4.8,1.5-4.8,4.8v7.8c0,3.3,1.5,4.8,4.8,4.8L478.8,454z M478.2,484c6.1,0,11.3-2.2,11.3-9.2c0-7-5.2-9.2-11.3-9.2
			l-32.7,0.2c-3.3,0-4.8,1.5-4.8,4.8v8.9c0,3.3,1.5,4.8,4.8,4.8h32.7V484z"/>
	</g>
	<g>
		<path fill="#00B1C8" d="M87.8,552.9c-0.9,0-1.8-0.6-1.8-1.7c0-1.1,0.9-1.7,1.8-1.7h11.8c1.8,0,3.3-0.7,3.3-2.8
			c0-2-1.5-2.8-3.3-2.8h-7.2c-3.5,0-6.5-1.8-6.5-5.9c0-4.1,3-5.9,6.5-5.9H104c0.9,0,1.8,0.6,1.8,1.7c0,1.1-0.9,1.7-1.8,1.7H92.6
			c-1.7,0-3.1,0.7-3.1,2.6s1.5,2.6,3.1,2.6h7.2c3.7,0,6.7,2,6.7,6.1c0,4.3-3,6.1-6.7,6.1H87.8z"/>
		<path fill="#00B1C8" d="M137.5,551.4c0,1.1-0.6,2-1.8,2s-1.8-0.9-1.8-2v-5.2c0-0.6-0.2-0.9-0.6-1.5l-8.1-10
			c-0.4-0.4-0.6-0.7-0.6-1.3c0-1.1,0.9-1.7,1.8-1.7s1.5,0.7,2.4,1.8l5.2,6.5c1.7,1.8,1.7,1.8,3.1,0l5.2-6.5c0.9-1.1,1.5-1.8,2.4-1.8
			c0.7,0,1.8,0.7,1.8,1.7c0,0.6-0.2,0.9-0.6,1.3l-8.1,10c-0.4,0.6-0.6,0.9-0.6,1.5v5.2H137.5z"/>
		<path fill="#00B1C8" d="M169.8,537c-0.2-0.2-0.2-0.2-0.4-0.2c-0.2,0-0.4,0.2-0.4,0.6v14c0,1.1-0.6,2-1.8,2s-1.8-0.9-1.8-2v-15.9
			c0-1.8,0.9-3.5,3.1-3.5c1.5,0,2.8,0.9,4.1,2.4l10.7,12.9c0.2,0.2,0.2,0.2,0.4,0.2s0.4-0.2,0.4-0.6v-13.1c0-1.1,0.6-2,1.8-2
			s1.8,0.9,1.8,2v16.6c0,1.5-0.7,3-2.6,3c-1.3,0-2.2-0.7-3.3-2L169.8,537z"/>
		<path fill="#00B1C8" d="M207.7,535.7c-0.9,0-1.8-0.6-1.8-1.7s0.9-1.7,1.8-1.7h18.7c0.9,0,1.8,0.6,1.8,1.7c0,1.1-0.9,1.7-1.8,1.7
			h-6.1c-0.9,0-1.5,0.4-1.5,1.5v14.2c0,1.1-0.6,2-1.8,2s-1.8-0.9-1.8-2v-14.2c0-0.9-0.4-1.5-1.5-1.5H207.7z"/>
		<path fill="#00B1C8" d="M263.3,540.7c0.9,0,1.5-0.4,1.5-1.5v-5.4c0-1.1,0.6-2,1.8-2c1.3,0,1.8,0.9,1.8,2v17.4c0,1.1-0.6,2-1.8,2
			c-1.3,0-1.8-0.9-1.8-2v-5.7c0-0.9-0.4-1.5-1.5-1.5h-11.6c-0.9,0-1.5,0.4-1.5,1.5v5.7c0,1.1-0.6,2-1.8,2s-1.8-0.9-1.8-2v-17.4
			c0-1.1,0.6-2,1.8-2s1.8,0.9,1.8,2v5.4c0,0.9,0.4,1.5,1.5,1.5H263.3z"/>
		<path fill="#00B1C8" d="M306.9,540.7c0.9,0,1.8,0.6,1.8,1.7c0,1.1-0.9,1.7-1.8,1.7h-12.4c-0.9,0-1.5,0.4-1.5,1.5v2.6
			c0,0.9,0.4,1.5,1.5,1.5h13.9c0.9,0,1.8,0.6,1.8,1.7s-0.9,1.7-1.8,1.7h-14.6c-3,0-4.3-1.3-4.3-4.3v-12.2c0-3,1.3-4.3,4.3-4.3h14.6
			c0.9,0,1.8,0.6,1.8,1.7c0,1.1-0.9,1.7-1.8,1.7h-13.9c-0.9,0-1.5,0.4-1.5,1.5v2.2c0,0.9,0.4,1.5,1.5,1.5L306.9,540.7L306.9,540.7z"
			/>
		<path fill="#00B1C8" d="M331.5,552.9c-0.9,0-1.8-0.6-1.8-1.7c0-1.1,0.9-1.7,1.8-1.7h11.8c1.8,0,3.3-0.7,3.3-2.8
			c0-2-1.5-2.8-3.3-2.8h-7.2c-3.5,0-6.5-1.8-6.5-5.9c0-4.1,3-5.9,6.5-5.9h11.6c0.9,0,1.8,0.6,1.8,1.7c0,1.1-0.9,1.7-1.8,1.7h-11.5
			c-1.7,0-3.1,0.7-3.1,2.6s1.5,2.6,3.1,2.6h7.2c3.7,0,6.7,2,6.7,6.1c0,4.3-3,6.1-6.7,6.1H331.5z"/>
		<path fill="#00B1C8" d="M374.7,551.4c0,1.1-0.6,2-1.8,2c-1.3,0-1.8-0.9-1.8-2V534c0-1.1,0.6-2,1.8-2c1.3,0,1.8,0.9,1.8,2V551.4z"
			/>
		<path fill="#00B1C8" d="M397.3,552.9c-0.9,0-1.8-0.6-1.8-1.7c0-1.1,0.9-1.7,1.8-1.7h11.8c1.8,0,3.3-0.7,3.3-2.8
			c0-2-1.5-2.8-3.3-2.8h-7.2c-3.5,0-6.5-1.8-6.5-5.9c0-4.1,3-5.9,6.5-5.9h11.6c0.9,0,1.8,0.6,1.8,1.7c0,1.1-0.9,1.7-1.8,1.7h-11.5
			c-1.7,0-3.1,0.7-3.1,2.6s1.5,2.6,3.1,2.6h7.2c3.7,0,6.7,2,6.7,6.1c0,4.3-3,6.1-6.7,6.1H397.3z"/>
	</g>
</g>
</svg>
